<svg xmlns="http://www.w3.org/2000/svg" viewBox="0 0 800 600" width="800" height="600">
  <!-- Background with gradient -->
  <defs>
    <linearGradient id="bgGradient" x1="0%" y1="0%" x2="100%" y2="100%">
      <stop offset="0%" stop-color="#1a1a2e" />
      <stop offset="100%" stop-color="#162e3a" />
    </linearGradient>
    <linearGradient id="accentGradient" x1="0%" y1="0%" x2="100%" y2="100%">
      <stop offset="0%" stop-color="#38A3A5" />
      <stop offset="100%" stop-color="#4BC7C9" />
    </linearGradient>
    <filter id="glow" x="-20%" y="-20%" width="140%" height="140%">
      <feGaussianBlur stdDeviation="5" result="blur" />
      <feComposite in="SourceGraphic" in2="blur" operator="over" />
    </filter>
    <filter id="shadow" x="-10%" y="-10%" width="140%" height="140%">
      <feDropShadow dx="2" dy="4" stdDeviation="8" flood-opacity="0.3" />
    </filter>
    <!-- Glowing dot pattern -->
    <pattern id="dots" x="0" y="0" width="40" height="40" patternUnits="userSpaceOnUse">
      <circle cx="20" cy="20" r="1" fill="#38A3A5" opacity="0.3" />
    </pattern>
  </defs>

  <!-- Main background -->
  <rect width="800" height="600" fill="url(#bgGradient)" />
  <rect width="800" height="600" fill="url(#dots)" opacity="0.3" />

  <!-- Abstract connection lines -->
  <g opacity="0.4" stroke="#38A3A5" stroke-width="1">
    <line x1="100" y1="150" x2="250" y2="200" />
    <line x1="250" y1="200" x2="350" y2="120" />
    <line x1="350" y1="120" x2="500" y2="180" />
    <line x1="500" y1="180" x2="600" y2="100" />
    <line x1="600" y1="100" x2="700" y2="150" />
    
    <line x1="150" y1="400" x2="250" y2="450" />
    <line x1="250" y1="450" x2="350" y2="420" />
    <line x1="350" y1="420" x2="450" y2="480" />
    <line x1="450" y1="480" x2="550" y2="430" />
    <line x1="550" y1="430" x2="650" y2="470" />
  </g>

  <!-- Connection nodes -->
  <g>
    <circle cx="100" cy="150" r="5" fill="#38A3A5" filter="url(#glow)" />
    <circle cx="250" cy="200" r="5" fill="#38A3A5" filter="url(#glow)" />
    <circle cx="350" cy="120" r="5" fill="#38A3A5" filter="url(#glow)" />
    <circle cx="500" cy="180" r="5" fill="#38A3A5" filter="url(#glow)" />
    <circle cx="600" cy="100" r="5" fill="#38A3A5" filter="url(#glow)" />
    <circle cx="700" cy="150" r="5" fill="#38A3A5" filter="url(#glow)" />
    
    <circle cx="150" cy="400" r="5" fill="#38A3A5" filter="url(#glow)" />
    <circle cx="250" cy="450" r="5" fill="#38A3A5" filter="url(#glow)" />
    <circle cx="350" cy="420" r="5" fill="#38A3A5" filter="url(#glow)" />
    <circle cx="450" cy="480" r="5" fill="#38A3A5" filter="url(#glow)" />
    <circle cx="550" cy="430" r="5" fill="#38A3A5" filter="url(#glow)" />
    <circle cx="650" cy="470" r="5" fill="#38A3A5" filter="url(#glow)" />
  </g>

  <!-- Central contact elements -->
  <g transform="translate(400, 300)" filter="url(#shadow)">
    <!-- Email/Message icon -->
    <rect x="-120" y="-90" width="240" height="180" rx="15" fill="#1e293b" stroke="url(#accentGradient)" stroke-width="2" />
    
    <!-- Message lines -->
    <rect x="-90" y="-50" width="180" height="10" rx="5" fill="#2a3a50" />
    <rect x="-90" y="-20" width="140" height="10" rx="5" fill="#2a3a50" />
    <rect x="-90" y="10" width="100" height="10" rx="5" fill="#2a3a50" />
    <rect x="-90" y="40" width="160" height="10" rx="5" fill="#2a3a50" />
    
    <!-- Contact icon -->
    <circle cx="0" cy="-140" r="45" fill="#1e293b" stroke="url(#accentGradient)" stroke-width="2" />
    <path d="M-15,-145 C-15,-155 15,-155 15,-145 C15,-125 -15,-125 -15,-145 Z" fill="url(#accentGradient)" />
    <circle cx="0" cy="-110" r="20" fill="url(#accentGradient)" />
    
    <!-- GitHub icon -->
    <g transform="translate(-90, 120)">
      <circle cx="0" cy="0" r="35" fill="#1e293b" stroke="url(#accentGradient)" stroke-width="2" />
      <path d="M0,-20 C-12,-20 -20,-12 -20,0 C-20,15 -13,20 0,28 C13,20 20,15 20,0 C20,-12 12,-20 0,-20 Z M0,4 C5,0 5,-10 0,-14 C-5,-10 -5,0 0,4 Z" fill="url(#accentGradient)" />
    </g>
    
    <!-- Code/PR icon -->
    <g transform="translate(90, 120)">
      <circle cx="0" cy="0" r="35" fill="#1e293b" stroke="url(#accentGradient)" stroke-width="2" />
      <path d="M-15,0 L-5,10 L-10,15 L-25,0 L-10,-15 L-5,-10 L-15,0 Z" fill="url(#accentGradient)" />
      <path d="M15,0 L5,10 L10,15 L25,0 L10,-15 L5,-10 L15,0 Z" fill="url(#accentGradient)" />
      <rect x="-2" y="-15" width="4" height="30" rx="2" transform="rotate(15)" fill="url(#accentGradient)" />
    </g>
  </g>

  <!-- Animated dots (simulating movement) -->
  <g>
    <circle cx="150" cy="200" r="2" fill="#38A3A5">
      <animate attributeName="cy" values="200;210;200" dur="3s" repeatCount="indefinite" />
    </circle>
    <circle cx="450" cy="150" r="2" fill="#38A3A5">
      <animate attributeName="cy" values="150;160;150" dur="4s" repeatCount="indefinite" />
    </circle>
    <circle cx="250" cy="400" r="2" fill="#38A3A5">
      <animate attributeName="cy" values="400;410;400" dur="5s" repeatCount="indefinite" />
    </circle>
    <circle cx="550" cy="350" r="2" fill="#38A3A5">
      <animate attributeName="cy" values="350;360;350" dur="3.5s" repeatCount="indefinite" />
    </circle>
  </g>

  <!-- Title elements -->
  <g transform="translate(400, 50)">
    <text x="0" y="0" font-family="Arial, sans-serif" font-size="32" font-weight="bold" text-anchor="middle" fill="#ffffff">Contact</text>
    <line x1="-100" y1="15" x2="100" y2="15" stroke="url(#accentGradient)" stroke-width="3" />
  </g>
</svg>